<svg width="68" height="69" viewBox="0 0 68 69" fill="none" xmlns="http://www.w3.org/2000/svg">
<path d="M20 51.124L48 51.124L48 68.124L20 68.124L20 51.124Z" fill="current"/>
<path d="M31.4673 51.124L36.4673 51.124L36.4673 68.124L31.4673 68.124L31.4673 51.124Z" fill="current"/>
<mask id="path-3-inside-1_498_252" fill="white">
<path d="M20 51.124L48 51.124L48 41.124L20 41.124L20 51.124Z"/>
</mask>
<path d="M20 51.124L48 51.124L48 41.124L20 41.124L20 51.124Z" fill="#B58472"/>
<path d="M46 51.124L46 41.124L50 41.124L50 51.124L46 51.124ZM22 41.124L22 51.124L18 51.124L18 41.124L22 41.124Z" fill="#6A3A2D" mask="url(#path-3-inside-1_498_252)"/>
<mask id="path-5-inside-2_498_252" fill="white">
<path d="M20 43.124L48 43.124L48 40.124L20 40.124L20 43.124Z"/>
</mask>
<path d="M20 43.124L48 43.124L48 40.124L20 40.124L20 43.124Z" fill="#E2BDAF"/>
<path d="M46 43.124L46 40.124L50 40.124L50 43.124L46 43.124ZM22 40.124L22 43.124L18 43.124L18 40.124L22 40.124Z" fill="#6A3A2D" mask="url(#path-5-inside-2_498_252)"/>
</svg>
