<svg width="133" height="230" viewBox="0 0 133 230" fill="none" xmlns="http://www.w3.org/2000/svg">
<rect x="1.52588e-05" width="105" height="230" fill="#D9D9D9"/>
<rect x="32.5" y="35.9231" width="40" height="150" fill="#949494"/>
<rect x="45" y="35.9231" width="15" height="150" fill="#656565"/>
<path d="M120.725 37.4231C122.663 37.4856 124.256 38.1574 125.506 39.4387C126.788 40.6887 127.459 42.2824 127.522 44.2199C127.491 46.0949 126.834 47.7043 125.553 49.0481L119.131 55.4231H127.522H129.022V58.4231H127.522H115.522H114.022V56.3137L114.444 55.8449L123.397 46.9387C124.147 46.1887 124.522 45.2824 124.522 44.2199C124.491 43.1574 124.116 42.2668 123.397 41.5481C122.678 40.8293 121.788 40.4543 120.725 40.4231C119.663 40.4231 118.772 40.7981 118.053 41.5481L117.35 42.2512L116.272 43.2824L114.163 41.1731L115.194 40.0949L115.897 39.4387C117.241 38.1262 118.85 37.4543 120.725 37.4231Z" fill="black"/>
<path d="M120.397 68.9231H120.772H121.522H123.022V70.4231V86.9231H126.022H127.522V89.9231H126.022H121.522H117.022H115.522V86.9231H117.022H120.022V72.5324L115.85 74.7356L115.522 74.9231V71.5481L120.069 69.1106L120.397 68.9231Z" fill="black"/>
<path d="M129.406 108.819V121.923H126.07V115.491C126.07 114.851 126.078 114.227 126.094 113.619C126.126 113.011 126.166 112.451 126.214 111.939H126.142L122.518 121.923H119.83L116.158 111.915H116.062C116.126 112.443 116.166 113.011 116.182 113.619C116.214 114.211 116.23 114.867 116.23 115.587V121.923H112.894V108.819H117.958L121.222 117.699L124.534 108.819H129.406Z" fill="black"/>
<path d="M114.022 139.423C114.085 137.298 114.819 135.532 116.225 134.126C117.631 132.72 119.397 131.986 121.522 131.923C123.647 131.986 125.413 132.72 126.819 134.126C128.225 135.532 128.96 137.298 129.022 139.423V145.423C128.96 147.548 128.225 149.314 126.819 150.72C125.413 152.126 123.647 152.861 121.522 152.923C119.397 152.861 117.631 152.126 116.225 150.72C114.819 149.314 114.085 147.548 114.022 145.423V139.423ZM121.522 134.923C120.241 134.954 119.178 135.392 118.335 136.236C117.491 137.079 117.053 138.142 117.022 139.423V145.423C117.053 146.704 117.491 147.767 118.335 148.611C119.178 149.454 120.241 149.892 121.522 149.923C122.803 149.892 123.866 149.454 124.71 148.611C125.553 147.767 125.991 146.704 126.022 145.423V139.423C125.991 138.142 125.553 137.079 124.71 136.236C123.866 135.392 122.803 134.954 121.522 134.923Z" fill="black"/>
<path d="M121.154 165.787C123.362 165.787 124.97 166.267 125.978 167.227C127.002 168.171 127.514 169.475 127.514 171.139C127.514 171.891 127.402 172.611 127.178 173.299C126.954 173.971 126.578 174.579 126.05 175.123C125.538 175.651 124.858 176.067 124.01 176.371C123.162 176.675 122.114 176.827 120.866 176.827H119.306V182.923H115.682V165.787H121.154ZM120.962 168.763H119.306V173.851H120.506C121.194 173.851 121.786 173.763 122.282 173.587C122.778 173.411 123.162 173.131 123.434 172.747C123.706 172.363 123.842 171.867 123.842 171.259C123.842 170.411 123.61 169.787 123.146 169.387C122.682 168.971 121.954 168.763 120.962 168.763Z" fill="black"/>
</svg>
