<svg width="40" height="32" viewBox="0 0 40 32" fill="none" xmlns="http://www.w3.org/2000/svg">
<path d="M12.9999 6C12.1665 5.95833 11.4582 5.66667 10.8749 5.125C10.3332 4.54167 10.0415 3.83333 9.99988 3C10.0415 2.16667 10.3332 1.45833 10.8749 0.875C11.4582 0.333333 12.1665 0.0416667 12.9999 0C13.8332 0.0416667 14.5415 0.333333 15.1249 0.875C15.6665 1.45833 15.9582 2.16667 15.9999 3C15.9582 3.83333 15.6665 4.54167 15.1249 5.125C14.5415 5.66667 13.8332 5.95833 12.9999 6ZM8.24988 7.9375L8.87488 8.0625L13.8749 9.0625L14.8749 9.25L15.3124 10.125L17.4999 14.5L19.8749 15.6875L18.1249 19.3125L15.1249 17.8125L14.4999 17.5L14.1874 16.875L13.3749 15.1875L12.1874 19.0625L15.4999 22.625L15.8124 23L15.9374 23.5L17.4374 29L17.9374 30.875L14.1249 31.9375L13.5624 30L12.1874 25L7.74988 20.125C6.83321 19.0417 6.54154 17.8125 6.87488 16.4375L7.93738 12.4375L5.62488 13.5L4.87488 15.625L4.24988 17.5625L0.499878 16.25L1.12488 14.375L2.12488 11.375L2.37488 10.5L3.18738 10.1875L7.68738 8.1875L8.24988 7.9375ZM5.87488 21C5.99988 21.1667 6.14571 21.3333 6.31238 21.5L8.81238 24.3125L7.87488 26.75L7.68738 27.125L7.43738 27.4375L4.43738 30.4375L2.99988 31.8125L0.187378 29L1.56238 27.5625L4.31238 24.875L5.87488 21ZM33.4374 9.5625L38.4374 14.5625L39.8124 16L38.4374 17.4375L33.4374 22.4375L31.9999 23.8125L29.1874 21L30.5624 19.5625L32.1874 18H23.9999H21.9999V14H23.9999H32.1874L30.5624 12.4375L29.1874 11L31.9999 8.1875L33.4374 9.5625Z" fill="black"/>
</svg>
