<svg width="122" height="230" viewBox="0 0 122 230" fill="none" xmlns="http://www.w3.org/2000/svg">
<path d="M32.0001 90.0006C32.0001 40.2949 72.2945 0.000549316 122 0.000549316V230.001C72.2945 230.001 32.0001 189.706 32.0001 140.001V90.0006Z" fill="#D9D9D9"/>
<circle cx="77.0001" cy="115.001" r="30" fill="#7E7E7E"/>
<path d="M18.287 77.3311C18.287 78.6591 18.119 79.8671 17.783 80.9551C17.463 82.0271 16.967 82.9551 16.295 83.7391C15.639 84.5231 14.791 85.1231 13.751 85.5391C12.727 85.9551 11.519 86.1631 10.127 86.1631C8.73495 86.1631 7.51895 85.9551 6.47895 85.5391C5.45495 85.1071 4.60695 84.5071 3.93495 83.7391C3.27895 82.9551 2.78295 82.0191 2.44695 80.9311C2.12695 79.8431 1.96695 78.6351 1.96695 77.3071C1.96695 75.5311 2.25495 73.9871 2.83095 72.6751C3.42295 71.3631 4.31895 70.3471 5.51895 69.6271C6.73495 68.8911 8.27895 68.5231 10.151 68.5231C12.007 68.5231 13.535 68.8911 14.735 69.6271C15.935 70.3471 16.823 71.3711 17.399 72.6991C17.991 74.0111 18.287 75.5551 18.287 77.3311ZM5.78295 77.3311C5.78295 78.5311 5.93495 79.5631 6.23895 80.4271C6.54295 81.2911 7.01495 81.9551 7.65495 82.4191C8.29495 82.8831 9.11895 83.1151 10.127 83.1151C11.167 83.1151 11.999 82.8831 12.623 82.4191C13.263 81.9551 13.727 81.2911 14.015 80.4271C14.319 79.5631 14.471 78.5311 14.471 77.3311C14.471 75.5231 14.135 74.1071 13.463 73.0831C12.791 72.0591 11.687 71.5471 10.151 71.5471C9.12695 71.5471 8.29495 71.7791 7.65495 72.2431C7.01495 72.7071 6.54295 73.3711 6.23895 74.2351C5.93495 75.0991 5.78295 76.1311 5.78295 77.3311Z" fill="black"/>
<path d="M13.183 127.607C12.703 128.695 12.191 129.639 11.647 130.439C11.119 131.223 10.439 131.823 9.60695 132.239C8.77495 132.655 7.68695 132.863 6.34295 132.863C5.92695 132.863 5.47095 132.831 4.97495 132.767C4.47895 132.703 4.02295 132.615 3.60695 132.503V129.383C3.99095 129.543 4.41495 129.655 4.87895 129.719C5.34295 129.783 5.77495 129.815 6.17495 129.815C6.70295 129.815 7.12695 129.727 7.44695 129.551C7.78295 129.375 8.04695 129.135 8.23895 128.831C8.44695 128.511 8.61495 128.167 8.74295 127.799L2.81495 115.487H6.65495L9.84695 122.903C9.92695 123.063 10.023 123.271 10.135 123.527C10.247 123.783 10.359 124.047 10.471 124.319C10.583 124.591 10.671 124.831 10.735 125.039H10.855C10.919 124.847 10.999 124.615 11.095 124.343C11.207 124.055 11.319 123.767 11.431 123.479C11.559 123.175 11.671 122.911 11.767 122.687L14.743 115.487H18.487L13.183 127.607Z" fill="black"/>
<path d="M17.275 176.923H13.651V169.531H6.85895V176.923H3.23495V159.787H6.85895V166.507H13.651V159.787H17.275V176.923Z" fill="black"/>
</svg>
